# xmcd
#
# Track frame offsets: 
#        150
#        15911
#        33180
#        55029
#        69511
#        88904
#        107076
#        125083
#        138499
#        147805
#        163457
#        181631
#
# Disc length: 2707 seconds
#
# Revision: 0
# Processed by: cddbd v1.5.2PL0 Copyright (c) Steve Scherf et al.
# Submitted via: ExactAudioCopy v0.95b4
#
DISCID=a00a910c
DTITLE=Gabe Ford  - Gabe Ford 
DYEAR=2006
DGENRE=Blues
TTITLE0=1. Wish4
TTITLE1=2. Too Much
TTITLE2=3. Running
TTITLE3=4. Sometime Love
TTITLE4=5. Newborn
TTITLE5=6. Watcha
TTITLE6=7. Never Say No
TTITLE7=8. The Yob
TTITLE8=9. Beam Town
TTITLE9=10. Hell No
TTITLE10=11. You Call It
TTITLE11=12. The Outs
EXTD=
EXTT0=
EXTT1=
EXTT2=
EXTT3=
EXTT4=
EXTT5=
EXTT6=
EXTT7=
EXTT8=
EXTT9=
EXTT10=
EXTT11=
PLAYORDER=
